<?xml version="1.0" standalone="no"?>
<!DOCTYPE svg PUBLIC "-//W3C//DTD SVG 20010904//EN"
 "http://www.w3.org/TR/2001/REC-SVG-20010904/DTD/svg10.dtd">
<svg version="1.0" xmlns="http://www.w3.org/2000/svg"
 width="100.000000pt" height="100.000000pt" viewBox="0 0 100.000000 100.000000"
 preserveAspectRatio="xMidYMid meet">

<g transform="translate(0.000000,100.000000) scale(0.100000,-0.100000)"
fill="#000000" stroke="none">
<path d="M442 811 c-66 -23 -117 -63 -159 -125 -40 -58 -53 -103 -53 -178 0
-144 91 -262 235 -303 113 -33 236 4 319 96 46 51 76 120 76 173 l0 30 -37
-36 c-49 -47 -99 -68 -165 -68 -68 1 -126 27 -166 76 -79 95 -67 222 26 306
23 21 42 40 42 43 0 11 -68 3 -118 -14z m40 -35 c-133 -151 -37 -381 164 -394
70 -5 109 6 163 46 l33 25 -7 -24 c-42 -134 -179 -230 -310 -216 -117 12 -224
92 -259 194 -21 60 -20 147 1 209 23 68 113 157 179 178 69 21 70 20 36 -18z"/>
<path d="M418 764 c-39 -21 -35 -28 5 -8 37 19 44 24 31 24 -5 -1 -21 -8 -36
-16z"/>
<path d="M327 683 c-26 -39 -52 -111 -45 -119 3 -2 10 15 17 38 7 24 24 58 38
76 14 18 23 36 20 39 -3 2 -17 -12 -30 -34z"/>
<path d="M487 356 c-23 -18 -9 -61 21 -62 12 0 22 5 22 12 0 7 2 18 5 26 8 21
-27 38 -48 24z m36 -32 c-3 -8 -11 -14 -18 -14 -17 0 -27 28 -12 33 20 7 36
-4 30 -19z"/>
<path d="M214 801 c-16 -13 -18 -20 -9 -36 5 -11 20 -20 32 -21 28 -1 37 38
13 59 -14 12 -19 12 -36 -2z m39 -27 c-3 -8 -11 -14 -18 -14 -17 0 -27 28 -12
33 20 7 36 -4 30 -19z"/>
<path d="M595 626 c-11 -6 -21 -11 -23 -12 -1 -1 3 -12 10 -25 14 -25 58 -35
58 -13 0 7 3 19 6 28 4 10 1 16 -9 16 -8 0 -17 4 -19 9 -1 5 -12 3 -23 -3z
m38 -32 c-3 -8 -11 -14 -18 -14 -17 0 -27 28 -12 33 20 7 36 -4 30 -19z"/>
</g>
</svg>
