<?xml version="1.0" encoding="iso-8859-1"?>
<!-- Uploaded to: SVG Repo, www.svgrepo.com, Generator: SVG Repo Mixer Tools -->
<svg fill="#000000" height="800px" width="800px" version="1.1" id="Layer_1" xmlns="http://www.w3.org/2000/svg" xmlns:xlink="http://www.w3.org/1999/xlink" 
	 viewBox="0 0 512 512" xml:space="preserve">
<g>
	<g>
		<path d="M512,202.667v-69.12c0-25.707-20.8-48.213-44.48-48.213H340.8C336.533,41.28,304.96,32,256,32
			c-48.96,0-80.533,9.28-84.8,53.333H44.48C20.8,85.333,0,107.84,0,133.547v69.12c0.107,0.427,0.107,0.96,0.32,1.387
			c0.213,11.52,3.733,22.72,10.24,32.213L0,437.333C0,457.387,0,480,32,480h448c32,0,32-22.72,32-43.2l-10.56-200.533
			c6.507-9.493,10.133-20.693,10.24-32.213C511.893,203.627,511.893,203.093,512,202.667z M256,53.333
			c47.68,0,60.907,8.64,63.467,32H192.533C195.093,61.973,208.32,53.333,256,53.333z M288,266.667v42.667h-64v-42.667H288z
			 M245.333,245.334L245.333,245.334V106.667h21.333v138.667H245.333z M21.333,133.547c0-13.76,11.307-26.88,23.147-26.88H224
			v138.667h-10.667c-5.867,0-10.667,4.8-10.667,10.667v21.227c-59.2-1.707-181.12-17.067-181.12-74.56h-0.213V133.547z
			 M224.107,458.667H32c-10.667,0-10.667,0-10.667-20.8l9.6-181.227c48.32,34.88,140.053,40.853,171.84,41.813V320
			c0,5.867,4.8,10.667,10.667,10.667h10.667V458.667z M266.667,458.667h-21.333v-128h21.333V458.667z M480,458.667H288v-128h10.667
			c5.867,0,10.667-4.8,10.667-10.667v-21.547c31.68-0.96,123.413-6.933,171.84-41.813l9.493,180.693
			C490.667,458.667,490.667,458.667,480,458.667z M490.667,202.667L490.667,202.667h-0.213c0,57.387-121.92,72.853-181.12,74.453
			V256c0-5.867-4.8-10.667-10.667-10.667H288V106.667h179.52c11.84,0,23.147,13.013,23.147,26.88V202.667z"/>
	</g>
</g>
</svg>