<?xml version="1.0" encoding="UTF-8"?>
<svg version="1.1" viewBox="0 0 2048 2048" width="6250" height="6250" xmlns="http://www.w3.org/2000/svg">
<path transform="translate(531,490)" d="m0 0h6l6 5 1 3v186l42-6 45-6h5l3-17 5-12 6-10 13-14 14-11 18-11 16-8 21-8 11-4 91-70 11-8 7-3 9-1 10 2 8 5 7 8 4 11v8l15-9 7-3h15l9 4 8 7 4 6 2 6 1 8-2 11-6 9-8 7-22 14-17 11-23 15 33-10 55-17 4-1h14l10 4 8 6 6 9 3 12-1 11-6 12-7 7-10 5-16 5h9l11 3 8 5 7 7 5 10 1 5v8l17-4 18-3 10-1h27l23 3 20 5 22 8 21 11 12 8 13 10 13 12 7 6 16 9 12 9 13 11 12 12 13 17 9 16 7 15 6 20 3 16 1 11v15l-2 18-5 21-7 19-10 20-12 18-11 14-8 8-3 1 10 9 7 10 5 11 2 9v18l-4 14-6 11-10 11-11 7-9 4-8 2h-21l-13-4-10-6-3-1-2 4-13 14-11 9-13 10-21 12-20 8-21 6-19 3h-36l-17-2-15 15 2 26 5 49 24 154 1 9v25l-3 21-5 18-9 21-9 15-4 6h552l5 5v8l-4 5-3 1h-1006l-6-5-1-3v-1052l3-5zm339 126m89 43m-22 77-78 18-11 3-1 2 30 8 20 8 7 3 12-16 9-11 14-14zm-257 61-69 31-2 2 34 13 29 12 29 14 20 11 16 11 13 10 10 9 8 7 7 7 18 22 10 15 11 19 9 19 12 12 8 7 13 13 3 1-1-14v-28l3-24-10-4-10-5-12-11-7-11-4-10-2-12v-9l3-14 8-16 7-8 10-7 11-5 14-3 8-1v-4l-26-10-21-5-23-3h-12l-16 2h-36l-16-3-15-6-12-7-10-8-6-5z"/>
<path transform="translate(580,837)" d="m0 0 7 1 30 10 40 16 29 13 24 13 15 10 12 9 13 11 20 20 11 14 14 21 14 27-1 5-8 14-8 17-6 18-4 18-2 16v28l3 21 5 19 8 20 10 18 12 16 11 12 12 11 16 11 16 9 20 8 17 5 16 3 10 1h29l11-1 2 7 23 147 1 9v22l-3 20-5 18-8 18-9 15-8 10-5 6h-424l-1-1v-686l15-7z" fill="#FEFEFE"/>
<path transform="translate(858,512)" d="m0 0 8 1 5 5 2 4v7l-4 6-13 11-14 11-17 14-28 22-8 5-5-1-3-3-5-1-4 3 1 7 10 8 4 1 11-6 24-15 42-26 24-15 26-16 7-1 7 3 4 4 2 5-1 8-4 6-16 10-17 11-25 16-17 11-25 16-11 7-8-8-6 1-1 1v7l13 17 5 1 55-17 54-17 37-11h11l6 4 4 6 1 9-4 8-6 5-25 8-72 22-43 13-4-4-3-5-6-1-3 2v6l12 22 2 1h7l124-25h7l7 3 5 4 3 7v7l-4 8-6 5-9 3-113 26-17 4-8 7-2-3-9-17-9-11-9-8-14-8-14-5-11-2h-31l-4 3 1 7 2 1h27l16 3 16 7 8 6 8 8 9 14 7 16 3 12 27 5 21 6 19 8 12 8 5 4 7 10 2 6v13l-3 6-2 1h-10l-18-6-25-10-21-6-25-4-10-1h-11l-15 2h-38l-13-3-16-8-11-8-9-8-9-12-6-13-2-5-1-1h-6l-2 2v7l5 12 3 6-14 7-36 16-35 16-36 16-13 6h-2v-144l26-4 68-9h7l4 20 4 9 4 7 7 1 3-3-1-6-4-6-4-14-1-16 2-15 4-12 7-11 11-11 16-12 18-10 21-9 19-6 18-14 78-60 8-6z" fill="#FEFEFE"/>
<path transform="translate(1154,823)" d="m0 0h2l-1 14v33l3 22 5 19 6 17-18-9-4-1h-19l-9 3-4 5v7l4 5 2 1h8l3-1h10l10 4 8 9 5 9 7 2 7-3 4-5 12 16 8 10 11 12 5 6-14 29-13 28-12 25-9 15-9 12-9 10-12 12-15 11-15 9-15 7-18 6-19 4-8 1h-32l-19-3-18-5-21-9-14-8-14-10-13-12-9-9-10-13-8-13-8-16-7-19-4-17-2-16v-26l3-20 5-19 8-19 14-29 13-28 4-8 7 1-6 10-13 27-4 13v14l4 13 6 9 7 7 17 9 28 13 17 8 13 3-6 8-11 11v7h7l8-7 7-8 10-13 12-6 10-9 7-12 20 9 3 3-4 10-1 5v13l4 13 6 10 8 7 16 8 39 19 11 4 12 1 11-2 10-4 10-8 6-9 16-33 1-3v-11l-4-8-8-6-34-16-33-16-26-12-3-1h-10l-8 4-5 6-3 6-5-1-17-8-1-4 3-7v-11l-5-9-6-4-28-13-37-18-7-3v-1h43l6 7 5 9 6 3 6-1 4-4 1-2v-7l-3-6v-3l26-6 30-10 20-9 19-10z" fill="#FEFEFE"/>
<path transform="translate(1247,1202)" d="m0 0h59l1 1v7l-22 104-1 2h18l2-12 21-99 2-3h59l1 1v7l-32 151-25 117-2 5h-59l-2-2 2-13 21-99-17 1-23 109-2 4h-59l-2-2 1-9 26-123 31-145z" fill="#FEFEFE"/>
<path transform="translate(531,490)" d="m0 0h6l6 5 1 3v186l42-6 45-6h5l3-17 5-12 6-10 13-14 14-11 18-11 16-8 21-8 11-4 91-70 11-8 7-3 9-1 10 2 8 5 7 8 4 11v8l15-9 7-3h15l9 4 8 7 4 6 2 6 1 8-2 11-6 9-8 7-22 14-17 11-23 15 33-10 55-17 4-1h14l10 4 8 6 6 9 3 12-1 11-6 12-7 7-10 5-16 5h9l11 3 8 5 7 7 5 10 1 5v8l17-4 18-3 10-1h27l23 3 20 5 22 8 21 11 12 8 13 10 13 12 7 6 16 9 12 9 13 11 12 12 13 17 9 16 7 15 6 20 3 16 1 11v15l-2 18-5 21-7 19-10 20-12 18-11 14-8 8-3 1 10 9 7 10 5 11 2 9v18l-4 14-6 11-10 11-11 7-9 4-8 2h-21l-13-4-10-6-3-1-2 4-13 14-11 9-13 10-21 12-20 8-21 6-19 3h-36l-17-2-15 15 2 26 5 49 24 154 1 9v25l-3 21-5 18-9 21-9 15-4 6h552l5 5v8l-4 5-3 1h-1006l-6-5-1-3v-1052l3-5zm2 4-5 5v1050l5 5h1e3l4-3-1-7-1-1h-559l12-18 10-19 7-21 4-20 1-10v-20l-3-23-23-147-6-63v-9l14-14 4-3 12 1 9 1h30l21-3 21-6 15-6 21-11 14-10 15-13 13-14 3-4 4 2 11 6 13 4h17l14-4 10-6 9-8 7-10 5-14 1-5v-14l-3-12-6-12-11-12-14-8-7-3 5-9 10 9 7 1 9-9 12-16 8-13 10-19 8-22 5-25 1-19-2-22-5-21-8-20-9-16-8-11-9-11-13-13-17-13-13-8-10-6-12-12-14-11-10-7-17-10-24-10-17-5-23-4-11-1h-20l-19 2-23 5-13 4 2-12-3-12-7-9-8-5-6-2h-16l-84 17 72-22 30-9 9-5 8-9 3-8v-14l-6-12-7-6-11-4h-10l-31 9-73 23-20 6 22-14 17-11 25-16 17-11 12-8 7-8 3-7v-13l-5-10-8-7-7-3h-12l-10 4-19 12h-2l3-10-2-12-4-6-8-7-5-2h-14l-8 4-18 14-69 53-15 11-24 8-23 11-16 10-11 9-10 9-9 11-5 11-4 14-1 11-15 1-82 11-4 1v-192l-4-3z" fill="#FEFEFE"/>
<path transform="translate(1401,1202)" d="m0 0h59l1 1v8l-31 146-26 122-2 4h-59l-2-2 1-9 31-146 15-70 11-52z" fill="#FEFEFE"/>
<path transform="translate(1435,648)" d="m0 0h6l6 4 2 5-1 7-7 7-11 9-13 12-11 9 2 5 10 15 7 15 3 8 11-3 55-20 20-7 6 1 5 4 1 2v7l-4 6-38 14-50 18 1 10v29l-1 8h14l36 2 6 5 1 2v7l-5 6-2 1h-15l-23-1h-17l-6 16-8 16-4 5-4 2-7-1-5-4-1-9 8-16 4-10-4-1-45-2-11-1-6-5-1-2v-7l5-6 3-1h12l45 2h8l1-8v-25l-1-4-55 20-8-1-5-6v-7l4-6 44-16 14-5h2l-9-21-10-15-8 6-12 11-11 9-12 11-8 6h-7l-5-3-2-3v-9l4-5 11-9 13-12 11-9 10-9-1-3-17-13-18-10-3-5v-7l5-6 8-1 14 7 13 9 10 8 6 5 5-3 12-11 11-9 13-12z" fill="#FEFEFE"/>
<path transform="translate(816,1013)" d="m0 0 7 6 8 8 8 7 5 6-7 15-5 17-2 11-1 20 2 19 5 19 7 16 7 12 11 14 9 9 15 11 19 10 18 6 18 3h32l3 32v7l-8 1h-33l-24-4-24-8-16-8-12-7-13-10-13-12-12-14-12-19-7-15-6-18-4-19-1-8v-32l3-20 6-21 7-16 9-17z" fill="#FEFEFE"/>
<path transform="translate(1476,1202)" d="m0 0h57l1 1v7l-29 125-14 60-2 3h-49l-2-2 1-12 34-176 2-5z" fill="#FEFEFE"/>
<path transform="translate(1090,949)" d="m0 0h8l31 15 28 13 37 18 3 4v9l-16 33-9 10-12 6-12 1-9-2-29-14-24-11-8-6-7-8-4-11v-13l5-13 13-27z" fill="#FEFEFE"/>
<path transform="translate(937,875)" d="m0 0 8 1 33 16 28 13 33 16 4 5v8l-17 35-2 1 3-9 6-16 2-9v-13l-3-3-5 1-1 1-2 18-6 17-12 23-3 4h-13l-17-7-37-18-8-4-8-7-5-9-2-6v-14l5-13 12-25 5-5z" fill="#FEFEFE"/>
<path transform="translate(863,1061)" d="m0 0 1 4-3 16v17l3 16 5 14 8 14 11 13 13 10 16 8 13 4 12 2h25l13-1-6 7-25 25h-12l-16-3-17-6-15-8-12-9-14-14-10-15-7-15-5-19-1-7v-28l2-12 9-6z" fill="#FEFEFE"/>
<path transform="translate(680,792)" d="m0 0 4 2 6 7 13 10 14 8 15 5 14 2h30l18-2h15l23 3 20 5 24 9 6 3-1 11-18 1-12 4-10 6-8 7-7 11-4 10-2 13 2 16 5 12 6 9 7 7 14 8 12 3-2 13-2 16v26l3 22 1 6-7-6-16-15-10-10-8-7-6-7-8-17-11-19-11-16-8-10-12-14-11-11-11-9-17-13-21-13-27-14-30-13-34-13-20-7v-2l69-31zm0 5-69 31-2 2 34 13 29 12 29 14 20 11 16 11 13 10 10 9 8 7 7 7 18 22 10 15 11 19 9 19 12 12 8 7 13 13 3 1-1-14v-28l3-24-10-4-10-5-12-11-7-11-4-10-2-12v-9l3-14 8-16 7-8 10-7 11-5 14-3 8-1v-4l-26-10-21-5-23-3h-12l-16 2h-36l-16-3-15-6-12-7-10-8-6-5z" fill="#FEFEFE"/>
<path transform="translate(1449,1421)" d="m0 0h17l9 4 5 4 5 9 1 5-1 13-5 12-7 8-7 6-10 4-4 1h-12l-9-3-6-4-5-6-2-5v-16l4-11 6-8 9-8z" fill="#FEFEFE"/>
<path transform="translate(871,865)" d="m0 0 13 1 12 5 7 5-2 6-5 11-4-4-11-19h-6l-2 5 5 9v3l-9 6-5 6-4 9v14l4 10 7 8 2 2-4 10-10-2-10-5-9-8-7-12-3-14 1-12 4-11 7-9 8-7 10-5z" fill="#FEFEFE"/>
<path transform="translate(1217,1026)" d="m0 0 8 2 10 5 7 6 6 9 4 10 1 4v14l-4 12-6 9-7 7-14 7-4 1h-16l-10-3-10-6-2-4 5-8h17l10-4 7-6 5-9 1-4v-17l12-2 2-2v-7h-8l-21 3 1-5z" fill="#FEFEFE"/>
<path transform="translate(954,1054)" d="m0 0 7 1 26 14 18 10 21 12 2 3-1 5-8 4-7 2-14 1-12-2-14-7-9-8-7-11-4-11-1-10z"/>
<path transform="translate(990,912)" d="m0 0h10l6 4 3 4 1 3v9l-11 23-7 6-9 1-8-4-4-5-1-3v-8l11-23 5-5z"/>
<path transform="translate(1113,969)" d="m0 0 8 1 6 4 3 4 1 3v8l-11 24-6 5-2 1h-10l-7-4-4-7v-8l9-20 4-6 6-4z"/>
<path transform="translate(953,728)" d="m0 0 3 1-9 7-10 9-12 12-10 13-9 14-19-9-21-7-22-5-6-1 6-7 5-3 69-16zm-16 8-78 18-11 3-1 2 30 8 20 8 7 3 12-16 9-11 14-14z" fill="#FEFEFE"/>
<path transform="translate(882,896)" d="m0 0 4 2 3 5-1 6-10 21h-3l-4-6-1-3v-12l6-9z" fill="#FEFEFE"/>
<path transform="translate(1212,1053)" d="m0 0 3 1v13l-3 6-7 6-5 2h-9l9-20 3-6z" fill="#FEFEFE"/>
<path transform="translate(964,1100)" d="m0 0h6l5 6 5 2 10 2 1 1v6l-3 3h-9l-10-4-7-7-1-5z"/>
<path transform="translate(965,1071)" d="m0 0 6 2 28 15 9 5-3 2h-8l-12-3-9-6-7-7z" fill="#FEFEFE"/>
<path transform="translate(961,1040)" d="m0 0 3 1-1 3-9 2-5-1 3-3z"/>
<path transform="translate(1037,1077)" d="m0 0h3l5 12h-4l-5-11z"/>
<path transform="translate(1016,1066)" d="m0 0 3 1 1 12h-3l-2-12z"/>
<path transform="translate(982,1050)" d="m0 0h3l-1 4-7 4-4-1 4-4z"/>
<path transform="translate(1028,1072)" d="m0 0h2l1 3v9h-3l-1-3v-8z"/>
<path transform="translate(970,1045)" d="m0 0h3v3l-7 5-4-1 5-5z"/>
<path transform="translate(1e3 1058)" d="m0 0 2 1-2 6-2 4-3-1 3-9z"/>
<path transform="translate(1008,1060)" d="m0 0 3 1-2 8h-3l1-8z"/>
<path transform="translate(992,1053)" d="m0 0h3l-2 5-3 3h-2l1-5z"/>
</svg>
